<mxfile host="app.diagrams.net" modified="2024-03-19T18:12:16.082Z" agent="Mozilla/5.0 (Macintosh; Intel Mac OS X 10_15_7) AppleWebKit/605.1.15 (KHTML, like Gecko) Version/17.1.2 Safari/605.1.15" etag="FRBeLSJI-IG_y-xwPHZV" version="24.0.7" type="github" pages="3">
  <diagram name="Страница — 1" id="VCDJ95G3ZWjjhpqe2b2W">
    <mxGraphModel dx="1514" dy="2226" grid="0" gridSize="10" guides="1" tooltips="1" connect="1" arrows="1" fold="1" page="0" pageScale="1" pageWidth="827" pageHeight="1169" math="0" shadow="0">
      <root>
        <mxCell id="0" />
        <mxCell id="1" parent="0" />
        <mxCell id="X4V-w88C6NCEwVWpJgK1-2" value="Клиент&lt;div&gt;&lt;br&gt;&lt;/div&gt;" style="swimlane;whiteSpace=wrap;html=1;" parent="1" vertex="1">
          <mxGeometry x="40" y="-1120" width="1200" height="30" as="geometry" />
        </mxCell>
        <mxCell id="X4V-w88C6NCEwVWpJgK1-3" value="Хостес&lt;div&gt;&lt;br&gt;&lt;/div&gt;" style="swimlane;horizontal=0;whiteSpace=wrap;html=1;points=[[0,0,0,0,0],[0,0.25,0,0,0],[0,0.5,0,0,0],[0,0.75,0,0,0],[0,1,0,0,0],[0.25,0,0,0,0],[0.25,1,0,0,0],[0.33,1,0,0,0],[0.5,0,0,0,0],[0.5,1,0,0,0],[0.67,1,0,0,0],[0.75,0,0,0,0],[0.75,1,0,0,0],[1,0,0,0,0],[1,0.25,0,0,0],[1,0.5,0,0,0],[1,0.75,0,0,0],[1,1,0,0,0]];" parent="1" vertex="1">
          <mxGeometry x="40" y="-997" width="1699" height="317" as="geometry" />
        </mxCell>
        <mxCell id="X4V-w88C6NCEwVWpJgK1-9" style="edgeStyle=orthogonalEdgeStyle;rounded=0;orthogonalLoop=1;jettySize=auto;html=1;exitX=1;exitY=0.5;exitDx=0;exitDy=0;exitPerimeter=0;" parent="X4V-w88C6NCEwVWpJgK1-3" source="X4V-w88C6NCEwVWpJgK1-4" target="X4V-w88C6NCEwVWpJgK1-8" edge="1">
          <mxGeometry relative="1" as="geometry" />
        </mxCell>
        <mxCell id="X4V-w88C6NCEwVWpJgK1-4" value="" style="points=[[0.145,0.145,0],[0.5,0,0],[0.855,0.145,0],[1,0.5,0],[0.855,0.855,0],[0.5,1,0],[0.145,0.855,0],[0,0.5,0]];shape=mxgraph.bpmn.event;html=1;verticalLabelPosition=bottom;labelBackgroundColor=#ffffff;verticalAlign=top;align=center;perimeter=ellipsePerimeter;outlineConnect=0;aspect=fixed;outline=standard;symbol=message;" parent="X4V-w88C6NCEwVWpJgK1-3" vertex="1">
          <mxGeometry x="40" y="67.5" width="40" height="40" as="geometry" />
        </mxCell>
        <mxCell id="X4V-w88C6NCEwVWpJgK1-8" value="&lt;div&gt;&lt;span style=&quot;font-size: 10px;&quot;&gt;проверить свободные столы в ресторане&lt;/span&gt;&lt;br&gt;&lt;/div&gt;" style="rounded=1;whiteSpace=wrap;html=1;" parent="X4V-w88C6NCEwVWpJgK1-3" vertex="1">
          <mxGeometry x="102" y="57.5" width="100" height="60" as="geometry" />
        </mxCell>
        <mxCell id="X4V-w88C6NCEwVWpJgK1-16" style="edgeStyle=orthogonalEdgeStyle;rounded=0;orthogonalLoop=1;jettySize=auto;html=1;exitX=0.5;exitY=1;exitDx=0;exitDy=0;exitPerimeter=0;entryX=0;entryY=0.5;entryDx=0;entryDy=0;" parent="X4V-w88C6NCEwVWpJgK1-3" source="X4V-w88C6NCEwVWpJgK1-11" target="X4V-w88C6NCEwVWpJgK1-14" edge="1">
          <mxGeometry relative="1" as="geometry">
            <mxPoint x="385" y="90" as="targetPoint" />
            <Array as="points">
              <mxPoint x="375" y="105" />
              <mxPoint x="376" y="105" />
              <mxPoint x="376" y="206" />
            </Array>
          </mxGeometry>
        </mxCell>
        <mxCell id="uNZeJeRfeoW7MrcFk0aF-52" style="edgeStyle=orthogonalEdgeStyle;rounded=0;orthogonalLoop=1;jettySize=auto;html=1;entryX=0;entryY=0.25;entryDx=0;entryDy=0;exitX=0.5;exitY=0;exitDx=0;exitDy=0;exitPerimeter=0;" edge="1" parent="X4V-w88C6NCEwVWpJgK1-3" source="X4V-w88C6NCEwVWpJgK1-11" target="X4V-w88C6NCEwVWpJgK1-13">
          <mxGeometry relative="1" as="geometry">
            <Array as="points">
              <mxPoint x="377" y="50" />
            </Array>
          </mxGeometry>
        </mxCell>
        <mxCell id="X4V-w88C6NCEwVWpJgK1-11" value="" style="points=[[0.25,0.25,0],[0.5,0,0],[0.75,0.25,0],[1,0.5,0],[0.75,0.75,0],[0.5,1,0],[0.25,0.75,0],[0,0.5,0]];shape=mxgraph.bpmn.gateway2;html=1;verticalLabelPosition=bottom;labelBackgroundColor=#ffffff;verticalAlign=top;align=center;perimeter=rhombusPerimeter;outlineConnect=0;outline=none;symbol=none;gwType=exclusive;" parent="X4V-w88C6NCEwVWpJgK1-3" vertex="1">
          <mxGeometry x="350" y="67" width="50" height="40" as="geometry" />
        </mxCell>
        <mxCell id="X4V-w88C6NCEwVWpJgK1-29" style="edgeStyle=orthogonalEdgeStyle;rounded=0;orthogonalLoop=1;jettySize=auto;html=1;exitX=1;exitY=0.5;exitDx=0;exitDy=0;entryX=0;entryY=0.5;entryDx=0;entryDy=0;entryPerimeter=0;" parent="X4V-w88C6NCEwVWpJgK1-3" source="X4V-w88C6NCEwVWpJgK1-13" edge="1">
          <mxGeometry relative="1" as="geometry">
            <mxPoint x="575" y="65" as="targetPoint" />
          </mxGeometry>
        </mxCell>
        <mxCell id="X4V-w88C6NCEwVWpJgK1-13" value="отказать клиенту или попросить подождать" style="rounded=1;whiteSpace=wrap;html=1;" parent="X4V-w88C6NCEwVWpJgK1-3" vertex="1">
          <mxGeometry x="425" y="35" width="120" height="60" as="geometry" />
        </mxCell>
        <mxCell id="uNZeJeRfeoW7MrcFk0aF-48" style="edgeStyle=orthogonalEdgeStyle;rounded=0;orthogonalLoop=1;jettySize=auto;html=1;" edge="1" parent="X4V-w88C6NCEwVWpJgK1-3" source="X4V-w88C6NCEwVWpJgK1-14" target="uNZeJeRfeoW7MrcFk0aF-39">
          <mxGeometry relative="1" as="geometry" />
        </mxCell>
        <mxCell id="X4V-w88C6NCEwVWpJgK1-14" value="Проводить гостя к столу" style="rounded=1;whiteSpace=wrap;html=1;" parent="X4V-w88C6NCEwVWpJgK1-3" vertex="1">
          <mxGeometry x="426" y="176" width="120" height="60" as="geometry" />
        </mxCell>
        <mxCell id="X4V-w88C6NCEwVWpJgK1-17" value="&lt;font style=&quot;font-size: 10px;&quot;&gt;нет&lt;/font&gt;" style="text;html=1;align=center;verticalAlign=middle;whiteSpace=wrap;rounded=0;" parent="X4V-w88C6NCEwVWpJgK1-3" vertex="1">
          <mxGeometry x="359" y="12.5" width="60" height="30" as="geometry" />
        </mxCell>
        <mxCell id="X4V-w88C6NCEwVWpJgK1-18" value="&lt;font style=&quot;font-size: 10px;&quot;&gt;да&lt;/font&gt;" style="text;html=1;align=center;verticalAlign=middle;whiteSpace=wrap;rounded=0;" parent="X4V-w88C6NCEwVWpJgK1-3" vertex="1">
          <mxGeometry x="369" y="121" width="60" height="30" as="geometry" />
        </mxCell>
        <mxCell id="CSyXMK17IaaruerWyZ7s-8" style="edgeStyle=orthogonalEdgeStyle;rounded=0;orthogonalLoop=1;jettySize=auto;html=1;exitX=0.5;exitY=1;exitDx=0;exitDy=0;exitPerimeter=0;entryX=0;entryY=0.5;entryDx=0;entryDy=0;entryPerimeter=0;" parent="X4V-w88C6NCEwVWpJgK1-3" source="X4V-w88C6NCEwVWpJgK1-26" target="uNZeJeRfeoW7MrcFk0aF-37" edge="1">
          <mxGeometry relative="1" as="geometry">
            <mxPoint x="765" y="187.4999999999999" as="targetPoint" />
          </mxGeometry>
        </mxCell>
        <mxCell id="X4V-w88C6NCEwVWpJgK1-26" value="" style="points=[[0.25,0.25,0],[0.5,0,0],[0.75,0.25,0],[1,0.5,0],[0.75,0.75,0],[0.5,1,0],[0.25,0.75,0],[0,0.5,0]];shape=mxgraph.bpmn.gateway2;html=1;verticalLabelPosition=bottom;labelBackgroundColor=#ffffff;verticalAlign=top;align=center;perimeter=rhombusPerimeter;outlineConnect=0;outline=none;symbol=none;gwType=exclusive;" parent="X4V-w88C6NCEwVWpJgK1-3" vertex="1">
          <mxGeometry x="655" y="40" width="50" height="50" as="geometry" />
        </mxCell>
        <mxCell id="X4V-w88C6NCEwVWpJgK1-34" style="edgeStyle=orthogonalEdgeStyle;rounded=0;orthogonalLoop=1;jettySize=auto;html=1;entryX=0;entryY=0.75;entryDx=0;entryDy=0;" parent="X4V-w88C6NCEwVWpJgK1-3" source="X4V-w88C6NCEwVWpJgK1-26" edge="1">
          <mxGeometry relative="1" as="geometry">
            <mxPoint x="715" y="30" as="sourcePoint" />
            <mxPoint x="765" y="65" as="targetPoint" />
          </mxGeometry>
        </mxCell>
        <mxCell id="X4V-w88C6NCEwVWpJgK1-36" value="&lt;font style=&quot;font-size: 10px;&quot;&gt;нет&lt;/font&gt;" style="text;html=1;align=center;verticalAlign=middle;whiteSpace=wrap;rounded=0;" parent="X4V-w88C6NCEwVWpJgK1-3" vertex="1">
          <mxGeometry x="687" y="35" width="60" height="30" as="geometry" />
        </mxCell>
        <mxCell id="X4V-w88C6NCEwVWpJgK1-47" value="&lt;font style=&quot;font-size: 10px;&quot;&gt;да&lt;/font&gt;" style="text;html=1;align=center;verticalAlign=middle;whiteSpace=wrap;rounded=0;" parent="X4V-w88C6NCEwVWpJgK1-3" vertex="1">
          <mxGeometry x="653" y="172.5" width="60" height="30" as="geometry" />
        </mxCell>
        <mxCell id="X4V-w88C6NCEwVWpJgK1-37" value="" style="points=[[0.145,0.145,0],[0.5,0,0],[0.855,0.145,0],[1,0.5,0],[0.855,0.855,0],[0.5,1,0],[0.145,0.855,0],[0,0.5,0]];shape=mxgraph.bpmn.event;html=1;verticalLabelPosition=bottom;labelBackgroundColor=#ffffff;verticalAlign=top;align=center;perimeter=ellipsePerimeter;outlineConnect=0;aspect=fixed;outline=end;symbol=terminate2;" parent="X4V-w88C6NCEwVWpJgK1-3" vertex="1">
          <mxGeometry x="765" y="42.5" width="45" height="45" as="geometry" />
        </mxCell>
        <mxCell id="CSyXMK17IaaruerWyZ7s-2" value="" style="points=[[0.145,0.145,0],[0.5,0,0],[0.855,0.145,0],[1,0.5,0],[0.855,0.855,0],[0.5,1,0],[0.145,0.855,0],[0,0.5,0]];shape=mxgraph.bpmn.event;html=1;verticalLabelPosition=bottom;labelBackgroundColor=#ffffff;verticalAlign=top;align=center;perimeter=ellipsePerimeter;outlineConnect=0;aspect=fixed;outline=standard;symbol=message;" parent="X4V-w88C6NCEwVWpJgK1-3" vertex="1">
          <mxGeometry x="560" y="45" width="40" height="40" as="geometry" />
        </mxCell>
        <mxCell id="CSyXMK17IaaruerWyZ7s-3" style="edgeStyle=orthogonalEdgeStyle;rounded=0;orthogonalLoop=1;jettySize=auto;html=1;exitX=1;exitY=0.5;exitDx=0;exitDy=0;exitPerimeter=0;entryX=0;entryY=0.5;entryDx=0;entryDy=0;entryPerimeter=0;" parent="X4V-w88C6NCEwVWpJgK1-3" source="CSyXMK17IaaruerWyZ7s-2" target="X4V-w88C6NCEwVWpJgK1-26" edge="1">
          <mxGeometry relative="1" as="geometry">
            <mxPoint x="615" y="65" as="sourcePoint" />
          </mxGeometry>
        </mxCell>
        <mxCell id="CSyXMK17IaaruerWyZ7s-6" value="&lt;font style=&quot;font-size: 10px;&quot;&gt;клиент будет ожидать стол?&lt;/font&gt;" style="text;html=1;align=center;verticalAlign=middle;whiteSpace=wrap;rounded=0;" parent="X4V-w88C6NCEwVWpJgK1-3" vertex="1">
          <mxGeometry x="590" y="20" width="79" height="30" as="geometry" />
        </mxCell>
        <mxCell id="-iJphdCgE6GtI9C4SPPY-55" style="edgeStyle=orthogonalEdgeStyle;rounded=0;orthogonalLoop=1;jettySize=auto;html=1;exitX=0;exitY=1;exitDx=0;exitDy=0;exitPerimeter=0;entryX=0.5;entryY=0;entryDx=0;entryDy=0;dashed=1;dashPattern=1 1;" parent="X4V-w88C6NCEwVWpJgK1-3" source="-iJphdCgE6GtI9C4SPPY-54" target="X4V-w88C6NCEwVWpJgK1-8" edge="1">
          <mxGeometry relative="1" as="geometry" />
        </mxCell>
        <mxCell id="-iJphdCgE6GtI9C4SPPY-54" value="" style="shape=mxgraph.bpmn.data;labelPosition=center;verticalLabelPosition=bottom;align=center;verticalAlign=top;size=8;html=1;" parent="X4V-w88C6NCEwVWpJgK1-3" vertex="1">
          <mxGeometry x="260" y="5" width="20" height="25" as="geometry" />
        </mxCell>
        <mxCell id="-iJphdCgE6GtI9C4SPPY-56" value="&lt;font style=&quot;font-size: 8px;&quot;&gt;Сколько человек будет за столиком&lt;/font&gt;" style="text;html=1;align=center;verticalAlign=middle;whiteSpace=wrap;rounded=0;" parent="X4V-w88C6NCEwVWpJgK1-3" vertex="1">
          <mxGeometry x="146" y="2.5" width="114" height="30" as="geometry" />
        </mxCell>
        <mxCell id="uNZeJeRfeoW7MrcFk0aF-36" value="&lt;span style=&quot;white-space: normal;&quot;&gt;столы свободны&lt;/span&gt;&lt;span style=&quot;white-space: normal;&quot;&gt;?&lt;/span&gt;" style="text;html=1;align=center;verticalAlign=middle;resizable=0;points=[];autosize=1;strokeColor=none;fillColor=none;" vertex="1" parent="X4V-w88C6NCEwVWpJgK1-3">
          <mxGeometry x="267" y="101" width="117" height="26" as="geometry" />
        </mxCell>
        <mxCell id="uNZeJeRfeoW7MrcFk0aF-55" style="edgeStyle=orthogonalEdgeStyle;rounded=0;orthogonalLoop=1;jettySize=auto;html=1;" edge="1" parent="X4V-w88C6NCEwVWpJgK1-3" source="uNZeJeRfeoW7MrcFk0aF-37" target="uNZeJeRfeoW7MrcFk0aF-50">
          <mxGeometry relative="1" as="geometry">
            <Array as="points">
              <mxPoint x="808" y="172" />
              <mxPoint x="808" y="290" />
              <mxPoint x="274" y="290" />
            </Array>
          </mxGeometry>
        </mxCell>
        <mxCell id="uNZeJeRfeoW7MrcFk0aF-37" value="Ожидание свободного&lt;div&gt;&amp;nbsp;стола 10-30 минут&lt;/div&gt;" style="points=[[0.145,0.145,0],[0.5,0,0],[0.855,0.145,0],[1,0.5,0],[0.855,0.855,0],[0.5,1,0],[0.145,0.855,0],[0,0.5,0]];shape=mxgraph.bpmn.event;html=1;verticalLabelPosition=bottom;labelBackgroundColor=#ffffff;verticalAlign=top;align=center;perimeter=ellipsePerimeter;outlineConnect=0;aspect=fixed;outline=standard;symbol=timer;" vertex="1" parent="X4V-w88C6NCEwVWpJgK1-3">
          <mxGeometry x="712" y="147" width="50" height="50" as="geometry" />
        </mxCell>
        <mxCell id="uNZeJeRfeoW7MrcFk0aF-39" value="Выполнена посадка&lt;div&gt;&amp;nbsp;гостя за стол&lt;/div&gt;" style="points=[[0.145,0.145,0],[0.5,0,0],[0.855,0.145,0],[1,0.5,0],[0.855,0.855,0],[0.5,1,0],[0.145,0.855,0],[0,0.5,0]];shape=mxgraph.bpmn.event;html=1;verticalLabelPosition=bottom;labelBackgroundColor=#ffffff;verticalAlign=top;align=center;perimeter=ellipsePerimeter;outlineConnect=0;aspect=fixed;outline=throwing;symbol=link;" vertex="1" parent="X4V-w88C6NCEwVWpJgK1-3">
          <mxGeometry x="598" y="181" width="50" height="50" as="geometry" />
        </mxCell>
        <mxCell id="uNZeJeRfeoW7MrcFk0aF-54" style="edgeStyle=orthogonalEdgeStyle;rounded=0;orthogonalLoop=1;jettySize=auto;html=1;" edge="1" parent="X4V-w88C6NCEwVWpJgK1-3" source="uNZeJeRfeoW7MrcFk0aF-50">
          <mxGeometry relative="1" as="geometry">
            <mxPoint x="350.8974358974359" y="87.5" as="targetPoint" />
          </mxGeometry>
        </mxCell>
        <mxCell id="uNZeJeRfeoW7MrcFk0aF-50" value="" style="points=[[0.25,0.25,0],[0.5,0,0],[0.75,0.25,0],[1,0.5,0],[0.75,0.75,0],[0.5,1,0],[0.25,0.75,0],[0,0.5,0]];shape=mxgraph.bpmn.gateway2;html=1;verticalLabelPosition=bottom;labelBackgroundColor=#ffffff;verticalAlign=top;align=center;perimeter=rhombusPerimeter;outlineConnect=0;outline=none;symbol=none;gwType=parallel;" vertex="1" parent="X4V-w88C6NCEwVWpJgK1-3">
          <mxGeometry x="249" y="62.5" width="50" height="50" as="geometry" />
        </mxCell>
        <mxCell id="uNZeJeRfeoW7MrcFk0aF-53" style="edgeStyle=orthogonalEdgeStyle;rounded=0;orthogonalLoop=1;jettySize=auto;html=1;entryX=0;entryY=0.5;entryDx=0;entryDy=0;entryPerimeter=0;" edge="1" parent="X4V-w88C6NCEwVWpJgK1-3" source="X4V-w88C6NCEwVWpJgK1-8" target="uNZeJeRfeoW7MrcFk0aF-50">
          <mxGeometry relative="1" as="geometry" />
        </mxCell>
        <mxCell id="X4V-w88C6NCEwVWpJgK1-6" style="edgeStyle=orthogonalEdgeStyle;rounded=0;orthogonalLoop=1;jettySize=auto;html=1;entryX=0.5;entryY=0;entryDx=0;entryDy=0;entryPerimeter=0;dashed=1;dashPattern=12 12;exitX=0.25;exitY=1;exitDx=0;exitDy=0;" parent="1" source="X4V-w88C6NCEwVWpJgK1-2" target="X4V-w88C6NCEwVWpJgK1-4" edge="1">
          <mxGeometry relative="1" as="geometry">
            <mxPoint x="110" y="-1000" as="sourcePoint" />
          </mxGeometry>
        </mxCell>
        <mxCell id="X4V-w88C6NCEwVWpJgK1-7" value="&lt;font style=&quot;font-size: 10px;&quot;&gt;Клиент приходят в ресторан&lt;/font&gt;" style="text;html=1;align=center;verticalAlign=middle;whiteSpace=wrap;rounded=0;" parent="1" vertex="1">
          <mxGeometry x="130" y="-1060" width="150" height="30" as="geometry" />
        </mxCell>
        <mxCell id="X4V-w88C6NCEwVWpJgK1-20" value="&lt;font style=&quot;font-size: 10px;&quot;&gt;Уведомление клиента об отсутствии столов и ожидании посадки&lt;/font&gt;" style="text;html=1;align=center;verticalAlign=middle;whiteSpace=wrap;rounded=0;" parent="1" vertex="1">
          <mxGeometry x="470" y="-1080" width="150" height="30" as="geometry" />
        </mxCell>
        <mxCell id="X4V-w88C6NCEwVWpJgK1-19" style="edgeStyle=orthogonalEdgeStyle;rounded=0;orthogonalLoop=1;jettySize=auto;html=1;exitX=0.5;exitY=0;exitDx=0;exitDy=0;dashed=1;dashPattern=12 12;entryX=0.5;entryY=1;entryDx=0;entryDy=0;" parent="1" source="X4V-w88C6NCEwVWpJgK1-13" target="X4V-w88C6NCEwVWpJgK1-2" edge="1">
          <mxGeometry relative="1" as="geometry">
            <mxPoint x="500" y="-1030" as="targetPoint" />
          </mxGeometry>
        </mxCell>
        <mxCell id="CSyXMK17IaaruerWyZ7s-4" style="edgeStyle=orthogonalEdgeStyle;rounded=0;orthogonalLoop=1;jettySize=auto;html=1;exitX=0.5;exitY=1;exitDx=0;exitDy=0;entryX=0.5;entryY=0;entryDx=0;entryDy=0;entryPerimeter=0;dashed=1;dashPattern=12 12;" parent="1" source="X4V-w88C6NCEwVWpJgK1-2" target="CSyXMK17IaaruerWyZ7s-2" edge="1">
          <mxGeometry relative="1" as="geometry" />
        </mxCell>
        <mxCell id="CSyXMK17IaaruerWyZ7s-5" value="&lt;font style=&quot;font-size: 10px;&quot;&gt;Получение ответа от клиента&lt;/font&gt;" style="text;html=1;align=center;verticalAlign=middle;whiteSpace=wrap;rounded=0;" parent="1" vertex="1">
          <mxGeometry x="640" y="-1060" width="100" height="30" as="geometry" />
        </mxCell>
        <mxCell id="GyKOGwFdfiAskB9urI5g-50" value="Ресторан" style="swimlane;html=1;childLayout=stackLayout;resizeParent=1;resizeParentMax=0;horizontal=0;startSize=20;horizontalStack=0;whiteSpace=wrap;" parent="1" vertex="1">
          <mxGeometry x="340" y="120" width="1552" height="900" as="geometry" />
        </mxCell>
        <mxCell id="GyKOGwFdfiAskB9urI5g-51" value="Хостес" style="swimlane;html=1;startSize=20;horizontal=0;" parent="GyKOGwFdfiAskB9urI5g-50" vertex="1">
          <mxGeometry x="20" width="1532" height="300" as="geometry" />
        </mxCell>
        <mxCell id="GyKOGwFdfiAskB9urI5g-58" value="" style="points=[[0.145,0.145,0],[0.5,0,0],[0.855,0.145,0],[1,0.5,0],[0.855,0.855,0],[0.5,1,0],[0.145,0.855,0],[0,0.5,0]];shape=mxgraph.bpmn.event;html=1;verticalLabelPosition=bottom;labelBackgroundColor=#ffffff;verticalAlign=top;align=center;perimeter=ellipsePerimeter;outlineConnect=0;aspect=fixed;outline=standard;symbol=message;" parent="GyKOGwFdfiAskB9urI5g-51" vertex="1">
          <mxGeometry x="55" y="70" width="50" height="50" as="geometry" />
        </mxCell>
        <mxCell id="GyKOGwFdfiAskB9urI5g-64" value="" style="edgeStyle=elbowEdgeStyle;fontSize=12;html=1;endArrow=blockThin;endFill=1;rounded=0;entryX=0;entryY=0.5;entryDx=0;entryDy=0;entryPerimeter=0;" parent="GyKOGwFdfiAskB9urI5g-51" target="GyKOGwFdfiAskB9urI5g-63" edge="1">
          <mxGeometry width="160" relative="1" as="geometry">
            <mxPoint x="377" y="108" as="sourcePoint" />
            <mxPoint x="537" y="108" as="targetPoint" />
          </mxGeometry>
        </mxCell>
        <mxCell id="uNZeJeRfeoW7MrcFk0aF-91" value="" style="points=[[0.25,0.25,0],[0.5,0,0],[0.75,0.25,0],[1,0.5,0],[0.75,0.75,0],[0.5,1,0],[0.25,0.75,0],[0,0.5,0]];shape=mxgraph.bpmn.gateway2;html=1;verticalLabelPosition=bottom;labelBackgroundColor=#ffffff;verticalAlign=top;align=center;perimeter=rhombusPerimeter;outlineConnect=0;outline=none;symbol=none;gwType=exclusive;" vertex="1" parent="GyKOGwFdfiAskB9urI5g-51">
          <mxGeometry x="224" y="70" width="50" height="50" as="geometry" />
        </mxCell>
        <mxCell id="GyKOGwFdfiAskB9urI5g-61" value="Подтвердить бронь" style="points=[[0.25,0,0],[0.5,0,0],[0.75,0,0],[1,0.25,0],[1,0.5,0],[1,0.75,0],[0.75,1,0],[0.5,1,0],[0.25,1,0],[0,0.75,0],[0,0.5,0],[0,0.25,0]];shape=mxgraph.bpmn.task;whiteSpace=wrap;rectStyle=rounded;size=10;html=1;container=1;expand=0;collapsible=0;taskMarker=service;" parent="GyKOGwFdfiAskB9urI5g-51" vertex="1">
          <mxGeometry x="351" y="60" width="120" height="80" as="geometry" />
        </mxCell>
        <mxCell id="GyKOGwFdfiAskB9urI5g-63" value="Ожидание клиента&amp;nbsp;&lt;div&gt;на назначеную&lt;/div&gt;&lt;div&gt;бронь&lt;/div&gt;" style="points=[[0.145,0.145,0],[0.5,0,0],[0.855,0.145,0],[1,0.5,0],[0.855,0.855,0],[0.5,1,0],[0.145,0.855,0],[0,0.5,0]];shape=mxgraph.bpmn.event;html=1;verticalLabelPosition=bottom;labelBackgroundColor=#ffffff;verticalAlign=top;align=center;perimeter=ellipsePerimeter;outlineConnect=0;aspect=fixed;outline=standard;symbol=timer;" parent="GyKOGwFdfiAskB9urI5g-51" vertex="1">
          <mxGeometry x="525" y="80" width="50" height="50" as="geometry" />
        </mxCell>
        <mxCell id="uNZeJeRfeoW7MrcFk0aF-93" value="Клиент&lt;div&gt;бронировал?&lt;/div&gt;" style="text;html=1;strokeColor=none;fillColor=none;align=center;verticalAlign=middle;whiteSpace=wrap;rounded=0;" vertex="1" parent="GyKOGwFdfiAskB9urI5g-51">
          <mxGeometry x="125" y="50" width="80" height="30" as="geometry" />
        </mxCell>
        <mxCell id="uNZeJeRfeoW7MrcFk0aF-94" value="Забронировать" style="points=[[0.25,0,0],[0.5,0,0],[0.75,0,0],[1,0.25,0],[1,0.5,0],[1,0.75,0],[0.75,1,0],[0.5,1,0],[0.25,1,0],[0,0.75,0],[0,0.5,0],[0,0.25,0]];shape=mxgraph.bpmn.task;whiteSpace=wrap;rectStyle=rounded;size=10;html=1;container=1;expand=0;collapsible=0;taskMarker=service;" vertex="1" parent="GyKOGwFdfiAskB9urI5g-51">
          <mxGeometry x="269" y="170" width="120" height="80" as="geometry" />
        </mxCell>
        <mxCell id="uNZeJeRfeoW7MrcFk0aF-101" value="" style="edgeStyle=elbowEdgeStyle;fontSize=12;html=1;endArrow=blockThin;endFill=1;rounded=0;" edge="1" parent="uNZeJeRfeoW7MrcFk0aF-94">
          <mxGeometry width="160" relative="1" as="geometry">
            <mxPoint x="114" y="39" as="sourcePoint" />
            <mxPoint x="188" y="39" as="targetPoint" />
          </mxGeometry>
        </mxCell>
        <mxCell id="uNZeJeRfeoW7MrcFk0aF-97" value="" style="edgeStyle=elbowEdgeStyle;fontSize=12;html=1;endArrow=blockThin;endFill=1;rounded=0;exitX=0.5;exitY=1;exitDx=0;exitDy=0;exitPerimeter=0;" edge="1" parent="GyKOGwFdfiAskB9urI5g-51" source="uNZeJeRfeoW7MrcFk0aF-91">
          <mxGeometry width="160" relative="1" as="geometry">
            <mxPoint x="104" y="207" as="sourcePoint" />
            <mxPoint x="264" y="207" as="targetPoint" />
            <Array as="points">
              <mxPoint x="249" y="165" />
            </Array>
          </mxGeometry>
        </mxCell>
        <mxCell id="uNZeJeRfeoW7MrcFk0aF-98" value="" style="edgeStyle=elbowEdgeStyle;fontSize=12;html=1;endArrow=blockThin;endFill=1;rounded=0;" edge="1" parent="GyKOGwFdfiAskB9urI5g-51">
          <mxGeometry width="160" relative="1" as="geometry">
            <mxPoint x="273" y="95" as="sourcePoint" />
            <mxPoint x="354" y="95" as="targetPoint" />
          </mxGeometry>
        </mxCell>
        <mxCell id="uNZeJeRfeoW7MrcFk0aF-100" value="" style="points=[[0.145,0.145,0],[0.5,0,0],[0.855,0.145,0],[1,0.5,0],[0.855,0.855,0],[0.5,1,0],[0.145,0.855,0],[0,0.5,0]];shape=mxgraph.bpmn.event;html=1;verticalLabelPosition=bottom;labelBackgroundColor=#ffffff;verticalAlign=top;align=center;perimeter=ellipsePerimeter;outlineConnect=0;aspect=fixed;outline=end;symbol=terminate2;" vertex="1" parent="GyKOGwFdfiAskB9urI5g-51">
          <mxGeometry x="455" y="182" width="50" height="50" as="geometry" />
        </mxCell>
        <mxCell id="uNZeJeRfeoW7MrcFk0aF-102" value="" style="edgeStyle=elbowEdgeStyle;fontSize=12;html=1;endArrow=blockThin;endFill=1;rounded=0;" edge="1" parent="GyKOGwFdfiAskB9urI5g-51">
          <mxGeometry width="160" relative="1" as="geometry">
            <mxPoint x="104" y="94" as="sourcePoint" />
            <mxPoint x="226" y="94" as="targetPoint" />
          </mxGeometry>
        </mxCell>
        <mxCell id="uNZeJeRfeoW7MrcFk0aF-103" value="Нет" style="text;html=1;strokeColor=none;fillColor=none;align=center;verticalAlign=middle;whiteSpace=wrap;rounded=0;" vertex="1" parent="GyKOGwFdfiAskB9urI5g-51">
          <mxGeometry x="162" y="170" width="80" height="30" as="geometry" />
        </mxCell>
        <mxCell id="uNZeJeRfeoW7MrcFk0aF-104" value="Да" style="text;html=1;strokeColor=none;fillColor=none;align=center;verticalAlign=middle;whiteSpace=wrap;rounded=0;" vertex="1" parent="GyKOGwFdfiAskB9urI5g-51">
          <mxGeometry x="271" y="60" width="80" height="30" as="geometry" />
        </mxCell>
        <mxCell id="uNZeJeRfeoW7MrcFk0aF-1" value="Официант" style="swimlane;html=1;startSize=20;horizontal=0;" vertex="1" parent="GyKOGwFdfiAskB9urI5g-50">
          <mxGeometry x="20" y="300" width="1532" height="300" as="geometry" />
        </mxCell>
        <mxCell id="uNZeJeRfeoW7MrcFk0aF-10" value="Заказ клиента" style="shape=mxgraph.bpmn.data;labelPosition=center;verticalLabelPosition=bottom;align=center;verticalAlign=top;size=15;html=1;" vertex="1" parent="uNZeJeRfeoW7MrcFk0aF-1">
          <mxGeometry x="673" y="22" width="40" height="60" as="geometry" />
        </mxCell>
        <mxCell id="uNZeJeRfeoW7MrcFk0aF-11" value="" style="edgeStyle=elbowEdgeStyle;fontSize=12;html=1;endFill=0;startFill=0;endSize=6;startSize=6;dashed=1;dashPattern=1 4;endArrow=openThin;startArrow=none;rounded=0;entryX=1;entryY=0.25;entryDx=0;entryDy=0;entryPerimeter=0;exitX=0;exitY=0;exitDx=40;exitDy=37.5;exitPerimeter=0;" edge="1" parent="uNZeJeRfeoW7MrcFk0aF-1" source="uNZeJeRfeoW7MrcFk0aF-10">
          <mxGeometry width="160" relative="1" as="geometry">
            <mxPoint x="660" y="289" as="sourcePoint" />
            <mxPoint x="760" y="149" as="targetPoint" />
            <Array as="points">
              <mxPoint x="790" y="239" />
            </Array>
          </mxGeometry>
        </mxCell>
        <mxCell id="uNZeJeRfeoW7MrcFk0aF-12" value="" style="edgeStyle=elbowEdgeStyle;fontSize=12;html=1;endFill=0;startFill=0;endSize=6;startSize=6;dashed=1;dashPattern=1 4;endArrow=openThin;startArrow=none;rounded=0;entryX=-0.096;entryY=0.625;entryDx=0;entryDy=0;entryPerimeter=0;" edge="1" parent="uNZeJeRfeoW7MrcFk0aF-1" target="uNZeJeRfeoW7MrcFk0aF-10">
          <mxGeometry width="160" relative="1" as="geometry">
            <mxPoint x="458" y="-349" as="sourcePoint" />
            <mxPoint x="540" y="110" as="targetPoint" />
            <Array as="points">
              <mxPoint x="646" y="-144" />
            </Array>
          </mxGeometry>
        </mxCell>
        <mxCell id="uNZeJeRfeoW7MrcFk0aF-8" value="" style="edgeStyle=elbowEdgeStyle;fontSize=12;html=1;endFill=0;startFill=0;endSize=6;startSize=6;dashed=1;dashPattern=1 4;endArrow=openThin;startArrow=none;rounded=0;exitX=0;exitY=0.5;exitDx=0;exitDy=0;exitPerimeter=0;" edge="1" parent="uNZeJeRfeoW7MrcFk0aF-1">
          <mxGeometry width="160" relative="1" as="geometry">
            <mxPoint x="1249" y="239" as="sourcePoint" />
            <mxPoint x="1244" y="169" as="targetPoint" />
            <Array as="points">
              <mxPoint x="1224" y="209" />
            </Array>
          </mxGeometry>
        </mxCell>
        <mxCell id="uNZeJeRfeoW7MrcFk0aF-13" value="Принять оплату" style="points=[[0.25,0,0],[0.5,0,0],[0.75,0,0],[1,0.25,0],[1,0.5,0],[1,0.75,0],[0.75,1,0],[0.5,1,0],[0.25,1,0],[0,0.75,0],[0,0.5,0],[0,0.25,0]];shape=mxgraph.bpmn.task;whiteSpace=wrap;rectStyle=rounded;size=10;html=1;container=1;expand=0;collapsible=0;taskMarker=service;" vertex="1" parent="uNZeJeRfeoW7MrcFk0aF-1">
          <mxGeometry x="1244" y="109" width="120" height="80" as="geometry" />
        </mxCell>
        <mxCell id="uNZeJeRfeoW7MrcFk0aF-15" value="Деньги" style="shape=mxgraph.bpmn.data;labelPosition=center;verticalLabelPosition=bottom;align=center;verticalAlign=top;size=15;html=1;" vertex="1" parent="uNZeJeRfeoW7MrcFk0aF-1">
          <mxGeometry x="1248" y="209" width="40" height="60" as="geometry" />
        </mxCell>
        <mxCell id="uNZeJeRfeoW7MrcFk0aF-16" value="Чек" style="shape=mxgraph.bpmn.data;labelPosition=center;verticalLabelPosition=bottom;align=center;verticalAlign=top;size=15;html=1;" vertex="1" parent="uNZeJeRfeoW7MrcFk0aF-1">
          <mxGeometry x="1323" y="209" width="40" height="60" as="geometry" />
        </mxCell>
        <mxCell id="uNZeJeRfeoW7MrcFk0aF-17" value="" style="edgeStyle=elbowEdgeStyle;fontSize=12;html=1;endFill=0;startFill=0;endSize=6;startSize=6;dashed=1;dashPattern=1 4;endArrow=openThin;startArrow=none;rounded=0;entryX=0;entryY=0;entryDx=40;entryDy=37.5;entryPerimeter=0;" edge="1" parent="uNZeJeRfeoW7MrcFk0aF-1" target="uNZeJeRfeoW7MrcFk0aF-16">
          <mxGeometry width="160" relative="1" as="geometry">
            <mxPoint x="1363" y="169" as="sourcePoint" />
            <mxPoint x="1523" y="169" as="targetPoint" />
            <Array as="points">
              <mxPoint x="1383" y="209" />
            </Array>
          </mxGeometry>
        </mxCell>
        <mxCell id="uNZeJeRfeoW7MrcFk0aF-18" value="" style="points=[[0.145,0.145,0],[0.5,0,0],[0.855,0.145,0],[1,0.5,0],[0.855,0.855,0],[0.5,1,0],[0.145,0.855,0],[0,0.5,0]];shape=mxgraph.bpmn.event;html=1;verticalLabelPosition=bottom;labelBackgroundColor=#ffffff;verticalAlign=top;align=center;perimeter=ellipsePerimeter;outlineConnect=0;aspect=fixed;outline=end;symbol=terminate2;" vertex="1" parent="uNZeJeRfeoW7MrcFk0aF-1">
          <mxGeometry x="1434" y="124" width="50" height="50" as="geometry" />
        </mxCell>
        <mxCell id="uNZeJeRfeoW7MrcFk0aF-19" value="" style="edgeStyle=elbowEdgeStyle;fontSize=12;html=1;endArrow=blockThin;endFill=1;rounded=0;" edge="1" parent="uNZeJeRfeoW7MrcFk0aF-1">
          <mxGeometry width="160" relative="1" as="geometry">
            <mxPoint x="1364" y="149" as="sourcePoint" />
            <mxPoint x="1434" y="149" as="targetPoint" />
          </mxGeometry>
        </mxCell>
        <mxCell id="uNZeJeRfeoW7MrcFk0aF-80" value="Выдать заказ" style="points=[[0.25,0,0],[0.5,0,0],[0.75,0,0],[1,0.25,0],[1,0.5,0],[1,0.75,0],[0.75,1,0],[0.5,1,0],[0.25,1,0],[0,0.75,0],[0,0.5,0],[0,0.25,0]];shape=mxgraph.bpmn.task;whiteSpace=wrap;rectStyle=rounded;size=10;html=1;container=1;expand=0;collapsible=0;taskMarker=user;" vertex="1" parent="uNZeJeRfeoW7MrcFk0aF-1">
          <mxGeometry x="879" y="119" width="120" height="80" as="geometry" />
        </mxCell>
        <mxCell id="uNZeJeRfeoW7MrcFk0aF-86" value="" style="edgeStyle=elbowEdgeStyle;fontSize=12;html=1;endArrow=blockThin;endFill=1;rounded=0;" edge="1" parent="uNZeJeRfeoW7MrcFk0aF-1">
          <mxGeometry width="160" relative="1" as="geometry">
            <mxPoint x="1001" y="152" as="sourcePoint" />
            <mxPoint x="1243" y="152" as="targetPoint" />
          </mxGeometry>
        </mxCell>
        <mxCell id="uNZeJeRfeoW7MrcFk0aF-87" value="Готовый заказ" style="shape=mxgraph.bpmn.data;labelPosition=center;verticalLabelPosition=bottom;align=center;verticalAlign=top;size=15;html=1;" vertex="1" parent="uNZeJeRfeoW7MrcFk0aF-1">
          <mxGeometry x="1022" y="185" width="40" height="60" as="geometry" />
        </mxCell>
        <mxCell id="uNZeJeRfeoW7MrcFk0aF-88" value="" style="edgeStyle=elbowEdgeStyle;fontSize=12;html=1;endFill=0;startFill=0;endSize=6;startSize=6;dashed=1;dashPattern=1 4;endArrow=openThin;startArrow=none;rounded=0;entryX=0;entryY=0.5;entryDx=0;entryDy=0;entryPerimeter=0;" edge="1" parent="uNZeJeRfeoW7MrcFk0aF-1" target="uNZeJeRfeoW7MrcFk0aF-87">
          <mxGeometry width="160" relative="1" as="geometry">
            <mxPoint x="970" y="200" as="sourcePoint" />
            <mxPoint x="1130" y="200" as="targetPoint" />
          </mxGeometry>
        </mxCell>
        <mxCell id="uNZeJeRfeoW7MrcFk0aF-90" value="Принять заказ" style="points=[[0.25,0,0],[0.5,0,0],[0.75,0,0],[1,0.25,0],[1,0.5,0],[1,0.75,0],[0.75,1,0],[0.5,1,0],[0.25,1,0],[0,0.75,0],[0,0.5,0],[0,0.25,0]];shape=mxgraph.bpmn.task;whiteSpace=wrap;rectStyle=rounded;size=10;html=1;container=1;expand=0;collapsible=0;taskMarker=service;" vertex="1" parent="uNZeJeRfeoW7MrcFk0aF-1">
          <mxGeometry x="640" y="127" width="120" height="80" as="geometry" />
        </mxCell>
        <mxCell id="uNZeJeRfeoW7MrcFk0aF-20" value="Кухня" style="swimlane;html=1;startSize=20;horizontal=0;" vertex="1" parent="GyKOGwFdfiAskB9urI5g-50">
          <mxGeometry x="20" y="600" width="1532" height="300" as="geometry" />
        </mxCell>
        <mxCell id="uNZeJeRfeoW7MrcFk0aF-33" value="Новый заказ" style="points=[[0.145,0.145,0],[0.5,0,0],[0.855,0.145,0],[1,0.5,0],[0.855,0.855,0],[0.5,1,0],[0.145,0.855,0],[0,0.5,0]];shape=mxgraph.bpmn.event;html=1;verticalLabelPosition=bottom;labelBackgroundColor=#ffffff;verticalAlign=top;align=center;perimeter=ellipsePerimeter;outlineConnect=0;aspect=fixed;outline=catching;symbol=message;" vertex="1" parent="uNZeJeRfeoW7MrcFk0aF-20">
          <mxGeometry x="674" y="75" width="50" height="50" as="geometry" />
        </mxCell>
        <mxCell id="uNZeJeRfeoW7MrcFk0aF-66" style="edgeStyle=orthogonalEdgeStyle;rounded=0;orthogonalLoop=1;jettySize=auto;html=1;" edge="1" parent="uNZeJeRfeoW7MrcFk0aF-20" source="uNZeJeRfeoW7MrcFk0aF-61" target="uNZeJeRfeoW7MrcFk0aF-65">
          <mxGeometry relative="1" as="geometry" />
        </mxCell>
        <mxCell id="uNZeJeRfeoW7MrcFk0aF-61" value="Приготовить заказ" style="points=[[0.25,0,0],[0.5,0,0],[0.75,0,0],[1,0.25,0],[1,0.5,0],[1,0.75,0],[0.75,1,0],[0.5,1,0],[0.25,1,0],[0,0.75,0],[0,0.5,0],[0,0.25,0]];shape=mxgraph.bpmn.task;whiteSpace=wrap;rectStyle=rounded;size=10;html=1;container=1;expand=0;collapsible=0;taskMarker=user;" vertex="1" parent="uNZeJeRfeoW7MrcFk0aF-20">
          <mxGeometry x="759" y="60" width="120" height="80" as="geometry" />
        </mxCell>
        <mxCell id="uNZeJeRfeoW7MrcFk0aF-62" style="edgeStyle=orthogonalEdgeStyle;rounded=0;orthogonalLoop=1;jettySize=auto;html=1;entryX=0;entryY=0.5;entryDx=0;entryDy=0;entryPerimeter=0;" edge="1" parent="uNZeJeRfeoW7MrcFk0aF-20" source="uNZeJeRfeoW7MrcFk0aF-33" target="uNZeJeRfeoW7MrcFk0aF-61">
          <mxGeometry relative="1" as="geometry" />
        </mxCell>
        <mxCell id="uNZeJeRfeoW7MrcFk0aF-63" value="Заказ клиента" style="shape=mxgraph.bpmn.data;labelPosition=center;verticalLabelPosition=bottom;align=center;verticalAlign=top;size=15;html=1;" vertex="1" parent="uNZeJeRfeoW7MrcFk0aF-20">
          <mxGeometry x="760" y="197" width="40" height="60" as="geometry" />
        </mxCell>
        <mxCell id="uNZeJeRfeoW7MrcFk0aF-65" value="Заказ приготовлен&lt;div&gt;10-60 минут&lt;/div&gt;" style="points=[[0.145,0.145,0],[0.5,0,0],[0.855,0.145,0],[1,0.5,0],[0.855,0.855,0],[0.5,1,0],[0.145,0.855,0],[0,0.5,0]];shape=mxgraph.bpmn.event;html=1;verticalLabelPosition=bottom;labelBackgroundColor=#ffffff;verticalAlign=top;align=center;perimeter=ellipsePerimeter;outlineConnect=0;aspect=fixed;outline=standard;symbol=timer;" vertex="1" parent="uNZeJeRfeoW7MrcFk0aF-20">
          <mxGeometry x="914" y="76" width="50" height="50" as="geometry" />
        </mxCell>
        <mxCell id="uNZeJeRfeoW7MrcFk0aF-84" value="" style="edgeStyle=elbowEdgeStyle;fontSize=12;html=1;endFill=0;startFill=0;endSize=6;startSize=6;dashed=1;dashPattern=1 4;endArrow=none;startArrow=none;rounded=0;exitX=0.5;exitY=1;exitDx=0;exitDy=0;exitPerimeter=0;entryX=0;entryY=0;entryDx=12.5;entryDy=0;entryPerimeter=0;" edge="1" parent="uNZeJeRfeoW7MrcFk0aF-20" source="uNZeJeRfeoW7MrcFk0aF-61" target="uNZeJeRfeoW7MrcFk0aF-63">
          <mxGeometry width="160" relative="1" as="geometry">
            <mxPoint x="786" y="-100" as="sourcePoint" />
            <mxPoint x="946" y="-100" as="targetPoint" />
          </mxGeometry>
        </mxCell>
        <mxCell id="uNZeJeRfeoW7MrcFk0aF-81" value="" style="dashed=1;dashPattern=8 4;endArrow=blockThin;endFill=1;startArrow=oval;startFill=0;endSize=6;startSize=4;html=1;rounded=0;exitX=0.5;exitY=1;exitDx=0;exitDy=0;exitPerimeter=0;entryX=0.5;entryY=0;entryDx=0;entryDy=0;entryPerimeter=0;" edge="1" parent="GyKOGwFdfiAskB9urI5g-50" source="uNZeJeRfeoW7MrcFk0aF-90" target="uNZeJeRfeoW7MrcFk0aF-33">
          <mxGeometry width="160" relative="1" as="geometry">
            <mxPoint x="520" y="495" as="sourcePoint" />
            <mxPoint x="883" y="373" as="targetPoint" />
          </mxGeometry>
        </mxCell>
        <mxCell id="uNZeJeRfeoW7MrcFk0aF-82" value="" style="dashed=1;dashPattern=8 4;endArrow=blockThin;endFill=1;startArrow=oval;startFill=0;endSize=6;startSize=4;html=1;rounded=0;entryX=0.5;entryY=1;entryDx=0;entryDy=0;entryPerimeter=0;exitX=0.5;exitY=0;exitDx=0;exitDy=0;exitPerimeter=0;" edge="1" parent="GyKOGwFdfiAskB9urI5g-50" source="uNZeJeRfeoW7MrcFk0aF-65" target="uNZeJeRfeoW7MrcFk0aF-80">
          <mxGeometry width="160" relative="1" as="geometry">
            <mxPoint x="828" y="672" as="sourcePoint" />
            <mxPoint x="981" y="672" as="targetPoint" />
          </mxGeometry>
        </mxCell>
        <mxCell id="GyKOGwFdfiAskB9urI5g-68" value="" style="edgeStyle=elbowEdgeStyle;fontSize=12;html=1;endArrow=blockThin;endFill=1;rounded=0;entryX=0;entryY=0.5;entryDx=0;entryDy=0;entryPerimeter=0;" parent="GyKOGwFdfiAskB9urI5g-50" source="GyKOGwFdfiAskB9urI5g-63" target="uNZeJeRfeoW7MrcFk0aF-90" edge="1">
          <mxGeometry width="160" relative="1" as="geometry">
            <mxPoint x="535" y="-15" as="sourcePoint" />
            <mxPoint x="754" y="464" as="targetPoint" />
            <Array as="points">
              <mxPoint x="632" y="285" />
            </Array>
          </mxGeometry>
        </mxCell>
        <mxCell id="GyKOGwFdfiAskB9urI5g-54" value="Клиент" style="swimlane;html=1;childLayout=stackLayout;resizeParent=1;resizeParentMax=0;horizontal=1;startSize=30;horizontalStack=0;whiteSpace=wrap;" parent="1" collapsed="1" vertex="1">
          <mxGeometry x="340" y="40" width="890" height="30" as="geometry">
            <mxRectangle x="140" y="610" width="480" height="140" as="alternateBounds" />
          </mxGeometry>
        </mxCell>
        <mxCell id="GyKOGwFdfiAskB9urI5g-57" value="Lane 3" style="swimlane;html=1;startSize=20;horizontal=0;" parent="GyKOGwFdfiAskB9urI5g-54" vertex="1">
          <mxGeometry y="20" width="480" height="120" as="geometry" />
        </mxCell>
        <mxCell id="GyKOGwFdfiAskB9urI5g-59" value="" style="dashed=1;dashPattern=8 4;endArrow=blockThin;endFill=1;startArrow=oval;startFill=0;endSize=6;startSize=4;html=1;rounded=0;entryX=0.5;entryY=0;entryDx=0;entryDy=0;entryPerimeter=0;" parent="1" target="GyKOGwFdfiAskB9urI5g-58" edge="1">
          <mxGeometry width="160" relative="1" as="geometry">
            <mxPoint x="440" y="70" as="sourcePoint" />
            <mxPoint x="600" y="70" as="targetPoint" />
          </mxGeometry>
        </mxCell>
        <mxCell id="GyKOGwFdfiAskB9urI5g-60" value="Клиент" style="edgeLabel;html=1;align=center;verticalAlign=middle;resizable=0;points=[];" parent="GyKOGwFdfiAskB9urI5g-59" connectable="0" vertex="1">
          <mxGeometry x="0.2816" y="-1" relative="1" as="geometry">
            <mxPoint as="offset" />
          </mxGeometry>
        </mxCell>
        <mxCell id="GyKOGwFdfiAskB9urI5g-65" value="" style="dashed=1;dashPattern=8 4;endArrow=blockThin;endFill=1;startArrow=oval;startFill=0;endSize=6;startSize=4;html=1;rounded=0;entryX=0.5;entryY=0;entryDx=0;entryDy=0;entryPerimeter=0;exitX=0.638;exitY=1.082;exitDx=0;exitDy=0;exitPerimeter=0;" parent="1" target="GyKOGwFdfiAskB9urI5g-63" edge="1" source="GyKOGwFdfiAskB9urI5g-54">
          <mxGeometry width="160" relative="1" as="geometry">
            <mxPoint x="720" y="70" as="sourcePoint" />
            <mxPoint x="880" y="70" as="targetPoint" />
          </mxGeometry>
        </mxCell>
        <mxCell id="GyKOGwFdfiAskB9urI5g-66" value="Наступившая бронь клиента" style="edgeLabel;html=1;align=center;verticalAlign=middle;resizable=0;points=[];" parent="GyKOGwFdfiAskB9urI5g-65" connectable="0" vertex="1">
          <mxGeometry x="0.115" y="1" relative="1" as="geometry">
            <mxPoint as="offset" />
          </mxGeometry>
        </mxCell>
        <mxCell id="GyKOGwFdfiAskB9urI5g-82" value="&lt;font style=&quot;font-size: 24px;&quot;&gt;Обслуживание клиента TO BE&lt;/font&gt;" style="text;html=1;align=center;verticalAlign=middle;whiteSpace=wrap;rounded=0;fontStyle=1" parent="1" vertex="1">
          <mxGeometry x="290" y="-60" width="200" height="30" as="geometry" />
        </mxCell>
        <mxCell id="-iJphdCgE6GtI9C4SPPY-41" value="Официант" style="swimlane;horizontal=0;whiteSpace=wrap;html=1;" parent="1" vertex="1">
          <mxGeometry x="40" y="-679" width="1698" height="249" as="geometry" />
        </mxCell>
        <mxCell id="X4V-w88C6NCEwVWpJgK1-24" value="" style="points=[[0.145,0.145,0],[0.5,0,0],[0.855,0.145,0],[1,0.5,0],[0.855,0.855,0],[0.5,1,0],[0.145,0.855,0],[0,0.5,0]];shape=mxgraph.bpmn.event;html=1;verticalLabelPosition=bottom;labelBackgroundColor=#ffffff;verticalAlign=top;align=center;perimeter=ellipsePerimeter;outlineConnect=0;aspect=fixed;outline=end;symbol=terminate2;" parent="-iJphdCgE6GtI9C4SPPY-41" vertex="1">
          <mxGeometry x="1623" y="157.5" width="45" height="45" as="geometry" />
        </mxCell>
        <mxCell id="-iJphdCgE6GtI9C4SPPY-57" value="Принять заказ" style="rounded=1;whiteSpace=wrap;html=1;" parent="-iJphdCgE6GtI9C4SPPY-41" vertex="1">
          <mxGeometry x="370" y="155.5" width="120" height="60" as="geometry" />
        </mxCell>
        <mxCell id="-iJphdCgE6GtI9C4SPPY-59" value="" style="edgeStyle=orthogonalEdgeStyle;rounded=0;orthogonalLoop=1;jettySize=auto;html=1;dashed=1;dashPattern=1 1;entryX=0.5;entryY=0;entryDx=0;entryDy=0;" parent="-iJphdCgE6GtI9C4SPPY-41" source="-iJphdCgE6GtI9C4SPPY-58" target="-iJphdCgE6GtI9C4SPPY-57" edge="1">
          <mxGeometry relative="1" as="geometry">
            <mxPoint x="430" y="150" as="targetPoint" />
          </mxGeometry>
        </mxCell>
        <mxCell id="-iJphdCgE6GtI9C4SPPY-58" value="" style="shape=mxgraph.bpmn.data;labelPosition=center;verticalLabelPosition=bottom;align=center;verticalAlign=top;size=15;html=1;" parent="-iJphdCgE6GtI9C4SPPY-41" vertex="1">
          <mxGeometry x="415" y="60" width="30" height="40" as="geometry" />
        </mxCell>
        <mxCell id="-iJphdCgE6GtI9C4SPPY-60" value="&lt;font style=&quot;font-size: 10px;&quot;&gt;Меню&lt;/font&gt;" style="text;html=1;strokeColor=none;fillColor=none;align=center;verticalAlign=middle;whiteSpace=wrap;rounded=0;" parent="-iJphdCgE6GtI9C4SPPY-41" vertex="1">
          <mxGeometry x="362" y="100" width="80" height="30" as="geometry" />
        </mxCell>
        <mxCell id="-iJphdCgE6GtI9C4SPPY-82" value="Отдать заказ" style="rounded=1;whiteSpace=wrap;html=1;" parent="-iJphdCgE6GtI9C4SPPY-41" vertex="1">
          <mxGeometry x="1008" y="150" width="120" height="60" as="geometry" />
        </mxCell>
        <mxCell id="4H6GxObWkdJtgANQntHv-5" value="" style="endArrow=classic;html=1;rounded=0;" parent="-iJphdCgE6GtI9C4SPPY-41" edge="1">
          <mxGeometry width="50" height="50" relative="1" as="geometry">
            <mxPoint x="1128" y="181" as="sourcePoint" />
            <mxPoint x="1197" y="181" as="targetPoint" />
          </mxGeometry>
        </mxCell>
        <mxCell id="RuhjXUxPbs46P9x9S8iF-16" style="edgeStyle=orthogonalEdgeStyle;rounded=0;orthogonalLoop=1;jettySize=auto;html=1;exitX=1;exitY=0.5;exitDx=0;exitDy=0;exitPerimeter=0;entryX=0;entryY=0.5;entryDx=0;entryDy=0;" parent="-iJphdCgE6GtI9C4SPPY-41" source="4H6GxObWkdJtgANQntHv-7" target="RuhjXUxPbs46P9x9S8iF-12" edge="1">
          <mxGeometry relative="1" as="geometry" />
        </mxCell>
        <mxCell id="4H6GxObWkdJtgANQntHv-7" value="Принять оплату" style="points=[[0.25,0,0],[0.5,0,0],[0.75,0,0],[1,0.25,0],[1,0.5,0],[1,0.75,0],[0.75,1,0],[0.5,1,0],[0.25,1,0],[0,0.75,0],[0,0.5,0],[0,0.25,0]];shape=mxgraph.bpmn.task;whiteSpace=wrap;rectStyle=rounded;size=10;html=1;container=1;expand=0;collapsible=0;taskMarker=abstract;" parent="-iJphdCgE6GtI9C4SPPY-41" vertex="1">
          <mxGeometry x="1198" y="140" width="120" height="80" as="geometry" />
        </mxCell>
        <mxCell id="RuhjXUxPbs46P9x9S8iF-2" value="" style="shape=mxgraph.bpmn.data;labelPosition=center;verticalLabelPosition=bottom;align=center;verticalAlign=top;size=15;html=1;" parent="-iJphdCgE6GtI9C4SPPY-41" vertex="1">
          <mxGeometry x="1003" y="26" width="40" height="60" as="geometry" />
        </mxCell>
        <mxCell id="RuhjXUxPbs46P9x9S8iF-3" style="edgeStyle=orthogonalEdgeStyle;rounded=0;orthogonalLoop=1;jettySize=auto;html=1;exitX=0.5;exitY=0;exitDx=0;exitDy=0;entryX=0.5;entryY=1;entryDx=0;entryDy=0;entryPerimeter=0;dashed=1;dashPattern=1 1;" parent="-iJphdCgE6GtI9C4SPPY-41" source="-iJphdCgE6GtI9C4SPPY-82" target="RuhjXUxPbs46P9x9S8iF-2" edge="1">
          <mxGeometry relative="1" as="geometry">
            <mxPoint x="1034" y="99" as="targetPoint" />
          </mxGeometry>
        </mxCell>
        <mxCell id="RuhjXUxPbs46P9x9S8iF-5" value="&lt;font style=&quot;font-size: 10px;&quot;&gt;Заказ&lt;/font&gt;" style="text;html=1;align=center;verticalAlign=middle;whiteSpace=wrap;rounded=0;" parent="-iJphdCgE6GtI9C4SPPY-41" vertex="1">
          <mxGeometry x="996" y="41" width="60" height="30" as="geometry" />
        </mxCell>
        <mxCell id="RuhjXUxPbs46P9x9S8iF-7" value="" style="shape=mxgraph.bpmn.data;labelPosition=center;verticalLabelPosition=bottom;align=center;verticalAlign=top;size=15;html=1;" parent="-iJphdCgE6GtI9C4SPPY-41" vertex="1">
          <mxGeometry x="1278" y="30" width="40" height="60" as="geometry" />
        </mxCell>
        <mxCell id="RuhjXUxPbs46P9x9S8iF-8" style="edgeStyle=orthogonalEdgeStyle;rounded=0;orthogonalLoop=1;jettySize=auto;html=1;exitX=0.5;exitY=1;exitDx=0;exitDy=0;exitPerimeter=0;entryX=0.5;entryY=0;entryDx=0;entryDy=0;entryPerimeter=0;dashed=1;dashPattern=1 1;" parent="-iJphdCgE6GtI9C4SPPY-41" source="RuhjXUxPbs46P9x9S8iF-7" target="4H6GxObWkdJtgANQntHv-7" edge="1">
          <mxGeometry relative="1" as="geometry" />
        </mxCell>
        <mxCell id="RuhjXUxPbs46P9x9S8iF-9" value="&lt;font style=&quot;font-size: 10px;&quot;&gt;Деньги&lt;/font&gt;" style="text;html=1;align=center;verticalAlign=middle;whiteSpace=wrap;rounded=0;" parent="-iJphdCgE6GtI9C4SPPY-41" vertex="1">
          <mxGeometry x="1268" y="45" width="60" height="30" as="geometry" />
        </mxCell>
        <mxCell id="RuhjXUxPbs46P9x9S8iF-10" value="" style="shape=mxgraph.bpmn.data;labelPosition=center;verticalLabelPosition=bottom;align=center;verticalAlign=top;size=15;html=1;" parent="-iJphdCgE6GtI9C4SPPY-41" vertex="1">
          <mxGeometry x="1423" y="36" width="40" height="60" as="geometry" />
        </mxCell>
        <mxCell id="RuhjXUxPbs46P9x9S8iF-12" value="Сформировать и отдать чек" style="rounded=1;whiteSpace=wrap;html=1;" parent="-iJphdCgE6GtI9C4SPPY-41" vertex="1">
          <mxGeometry x="1394" y="150" width="120" height="60" as="geometry" />
        </mxCell>
        <mxCell id="RuhjXUxPbs46P9x9S8iF-13" style="edgeStyle=orthogonalEdgeStyle;rounded=0;orthogonalLoop=1;jettySize=auto;html=1;exitX=0.5;exitY=0;exitDx=0;exitDy=0;entryX=0.5;entryY=1;entryDx=0;entryDy=0;entryPerimeter=0;dashed=1;dashPattern=1 1;" parent="-iJphdCgE6GtI9C4SPPY-41" source="RuhjXUxPbs46P9x9S8iF-12" target="RuhjXUxPbs46P9x9S8iF-10" edge="1">
          <mxGeometry relative="1" as="geometry" />
        </mxCell>
        <mxCell id="RuhjXUxPbs46P9x9S8iF-15" style="edgeStyle=orthogonalEdgeStyle;rounded=0;orthogonalLoop=1;jettySize=auto;html=1;exitX=1;exitY=0.5;exitDx=0;exitDy=0;entryX=0;entryY=0.5;entryDx=0;entryDy=0;entryPerimeter=0;" parent="-iJphdCgE6GtI9C4SPPY-41" source="RuhjXUxPbs46P9x9S8iF-12" target="X4V-w88C6NCEwVWpJgK1-24" edge="1">
          <mxGeometry relative="1" as="geometry" />
        </mxCell>
        <mxCell id="RuhjXUxPbs46P9x9S8iF-14" value="&lt;font style=&quot;font-size: 10px;&quot;&gt;чек&lt;/font&gt;" style="text;html=1;align=center;verticalAlign=middle;whiteSpace=wrap;rounded=0;" parent="-iJphdCgE6GtI9C4SPPY-41" vertex="1">
          <mxGeometry x="1413" y="56" width="60" height="30" as="geometry" />
        </mxCell>
        <mxCell id="uNZeJeRfeoW7MrcFk0aF-47" style="edgeStyle=orthogonalEdgeStyle;rounded=0;orthogonalLoop=1;jettySize=auto;html=1;entryX=0;entryY=0.5;entryDx=0;entryDy=0;" edge="1" parent="-iJphdCgE6GtI9C4SPPY-41" source="uNZeJeRfeoW7MrcFk0aF-41">
          <mxGeometry relative="1" as="geometry">
            <mxPoint x="370" y="180" as="targetPoint" />
          </mxGeometry>
        </mxCell>
        <mxCell id="uNZeJeRfeoW7MrcFk0aF-41" value="Выполнена посадка&lt;div&gt;&amp;nbsp;гостя за стол&lt;/div&gt;" style="points=[[0.145,0.145,0],[0.5,0,0],[0.855,0.145,0],[1,0.5,0],[0.855,0.855,0],[0.5,1,0],[0.145,0.855,0],[0,0.5,0]];shape=mxgraph.bpmn.event;html=1;verticalLabelPosition=bottom;labelBackgroundColor=#ffffff;verticalAlign=top;align=center;perimeter=ellipsePerimeter;outlineConnect=0;aspect=fixed;outline=catching;symbol=link;" vertex="1" parent="-iJphdCgE6GtI9C4SPPY-41">
          <mxGeometry x="189" y="155.5" width="50" height="50" as="geometry" />
        </mxCell>
        <mxCell id="-iJphdCgE6GtI9C4SPPY-53" value="Кухня" style="swimlane;horizontal=0;whiteSpace=wrap;html=1;" parent="1" vertex="1">
          <mxGeometry x="40" y="-430" width="1697" height="210" as="geometry" />
        </mxCell>
        <mxCell id="-iJphdCgE6GtI9C4SPPY-70" style="edgeStyle=orthogonalEdgeStyle;rounded=0;orthogonalLoop=1;jettySize=auto;html=1;exitX=1;exitY=0.5;exitDx=0;exitDy=0;exitPerimeter=0;entryX=0;entryY=0.5;entryDx=0;entryDy=0;" parent="-iJphdCgE6GtI9C4SPPY-53" target="-iJphdCgE6GtI9C4SPPY-69" edge="1">
          <mxGeometry relative="1" as="geometry">
            <mxPoint x="640" y="115" as="sourcePoint" />
          </mxGeometry>
        </mxCell>
        <mxCell id="-iJphdCgE6GtI9C4SPPY-68" value="&lt;font style=&quot;font-size: 10px;&quot;&gt;Заказ&lt;/font&gt;" style="text;html=1;align=center;verticalAlign=middle;whiteSpace=wrap;rounded=0;" parent="-iJphdCgE6GtI9C4SPPY-53" vertex="1">
          <mxGeometry x="620" y="10" width="80" height="30" as="geometry" />
        </mxCell>
        <mxCell id="-iJphdCgE6GtI9C4SPPY-80" style="edgeStyle=orthogonalEdgeStyle;rounded=0;orthogonalLoop=1;jettySize=auto;html=1;exitX=1;exitY=0.5;exitDx=0;exitDy=0;" parent="-iJphdCgE6GtI9C4SPPY-53" source="-iJphdCgE6GtI9C4SPPY-69" edge="1">
          <mxGeometry relative="1" as="geometry">
            <mxPoint x="910" y="115" as="targetPoint" />
          </mxGeometry>
        </mxCell>
        <mxCell id="-iJphdCgE6GtI9C4SPPY-69" value="Приготовить заказ" style="rounded=1;whiteSpace=wrap;html=1;" parent="-iJphdCgE6GtI9C4SPPY-53" vertex="1">
          <mxGeometry x="720" y="85" width="120" height="60" as="geometry" />
        </mxCell>
        <mxCell id="-iJphdCgE6GtI9C4SPPY-74" style="edgeStyle=orthogonalEdgeStyle;rounded=0;orthogonalLoop=1;jettySize=auto;html=1;entryX=0.5;entryY=0;entryDx=0;entryDy=0;dashed=1;dashPattern=1 1;" parent="-iJphdCgE6GtI9C4SPPY-53" source="-iJphdCgE6GtI9C4SPPY-73" target="-iJphdCgE6GtI9C4SPPY-69" edge="1">
          <mxGeometry relative="1" as="geometry" />
        </mxCell>
        <mxCell id="-iJphdCgE6GtI9C4SPPY-73" value="" style="shape=mxgraph.bpmn.data;labelPosition=center;verticalLabelPosition=bottom;align=center;verticalAlign=top;size=15;html=1;" parent="-iJphdCgE6GtI9C4SPPY-53" vertex="1">
          <mxGeometry x="830" y="10" width="30" height="40" as="geometry" />
        </mxCell>
        <mxCell id="-iJphdCgE6GtI9C4SPPY-75" value="&lt;font style=&quot;font-size: 10px;&quot;&gt;Заказанные позиции&lt;/font&gt;" style="text;html=1;align=center;verticalAlign=middle;whiteSpace=wrap;rounded=0;" parent="-iJphdCgE6GtI9C4SPPY-53" vertex="1">
          <mxGeometry x="770" y="30" width="60" height="30" as="geometry" />
        </mxCell>
        <mxCell id="4H6GxObWkdJtgANQntHv-1" value="Заказ приготовлен&lt;div&gt;10-60 минут&lt;/div&gt;" style="points=[[0.145,0.145,0],[0.5,0,0],[0.855,0.145,0],[1,0.5,0],[0.855,0.855,0],[0.5,1,0],[0.145,0.855,0],[0,0.5,0]];shape=mxgraph.bpmn.event;html=1;verticalLabelPosition=bottom;labelBackgroundColor=#ffffff;verticalAlign=top;align=center;perimeter=ellipsePerimeter;outlineConnect=0;aspect=fixed;outline=standard;symbol=timer;" parent="-iJphdCgE6GtI9C4SPPY-53" vertex="1">
          <mxGeometry x="911" y="88" width="50" height="50" as="geometry" />
        </mxCell>
        <mxCell id="4H6GxObWkdJtgANQntHv-2" value="" style="edgeStyle=elbowEdgeStyle;fontSize=12;html=1;endArrow=blockThin;endFill=1;rounded=0;entryX=0;entryY=0.5;entryDx=0;entryDy=0;" parent="-iJphdCgE6GtI9C4SPPY-53" target="-iJphdCgE6GtI9C4SPPY-82" edge="1">
          <mxGeometry width="160" relative="1" as="geometry">
            <mxPoint x="961" y="113" as="sourcePoint" />
            <mxPoint x="1121" y="113" as="targetPoint" />
          </mxGeometry>
        </mxCell>
        <mxCell id="uNZeJeRfeoW7MrcFk0aF-60" value="Новый заказ" style="points=[[0.145,0.145,0],[0.5,0,0],[0.855,0.145,0],[1,0.5,0],[0.855,0.855,0],[0.5,1,0],[0.145,0.855,0],[0,0.5,0]];shape=mxgraph.bpmn.event;html=1;verticalLabelPosition=bottom;labelBackgroundColor=#ffffff;verticalAlign=top;align=center;perimeter=ellipsePerimeter;outlineConnect=0;aspect=fixed;outline=catching;symbol=message;" vertex="1" parent="-iJphdCgE6GtI9C4SPPY-53">
          <mxGeometry x="590" y="90" width="50" height="50" as="geometry" />
        </mxCell>
        <mxCell id="-iJphdCgE6GtI9C4SPPY-67" style="edgeStyle=orthogonalEdgeStyle;rounded=0;orthogonalLoop=1;jettySize=auto;html=1;exitX=0.5;exitY=1;exitDx=0;exitDy=0;entryX=0.5;entryY=0;entryDx=0;entryDy=0;entryPerimeter=0;dashed=1;dashPattern=12 12;" parent="1" source="-iJphdCgE6GtI9C4SPPY-57" edge="1">
          <mxGeometry relative="1" as="geometry">
            <mxPoint x="655" y="-340" as="targetPoint" />
          </mxGeometry>
        </mxCell>
      </root>
    </mxGraphModel>
  </diagram>
  <diagram id="ehq0TlZbwrY0DzUp3zsp" name="Страница — 2">
    <mxGraphModel dx="1886" dy="611" grid="1" gridSize="10" guides="1" tooltips="1" connect="1" arrows="1" fold="1" page="1" pageScale="1" pageWidth="827" pageHeight="1169" math="0" shadow="0">
      <root>
        <mxCell id="0" />
        <mxCell id="1" parent="0" />
        <mxCell id="kav7wHiDTqGErKAAx3Vg-1" value="Кухня" style="swimlane;horizontal=0;whiteSpace=wrap;html=1;startSize=10;" parent="1" vertex="1">
          <mxGeometry y="140" width="1010" height="200" as="geometry" />
        </mxCell>
        <mxCell id="A05Jj-2Q0ebtKLaCxtoe-6" style="edgeStyle=orthogonalEdgeStyle;rounded=0;orthogonalLoop=1;jettySize=auto;html=1;exitX=1;exitY=0.5;exitDx=0;exitDy=0;exitPerimeter=0;entryX=0;entryY=0.5;entryDx=0;entryDy=0;" edge="1" parent="kav7wHiDTqGErKAAx3Vg-1" source="A05Jj-2Q0ebtKLaCxtoe-2" target="A05Jj-2Q0ebtKLaCxtoe-5">
          <mxGeometry relative="1" as="geometry" />
        </mxCell>
        <mxCell id="A05Jj-2Q0ebtKLaCxtoe-2" value="" style="points=[[0.145,0.145,0],[0.5,0,0],[0.855,0.145,0],[1,0.5,0],[0.855,0.855,0],[0.5,1,0],[0.145,0.855,0],[0,0.5,0]];shape=mxgraph.bpmn.event;html=1;verticalLabelPosition=bottom;labelBackgroundColor=#ffffff;verticalAlign=top;align=center;perimeter=ellipsePerimeter;outlineConnect=0;aspect=fixed;outline=standard;symbol=message;" vertex="1" parent="kav7wHiDTqGErKAAx3Vg-1">
          <mxGeometry x="40" y="80" width="50" height="50" as="geometry" />
        </mxCell>
        <mxCell id="A05Jj-2Q0ebtKLaCxtoe-9" style="edgeStyle=orthogonalEdgeStyle;rounded=0;orthogonalLoop=1;jettySize=auto;html=1;exitX=1;exitY=0.5;exitDx=0;exitDy=0;entryX=0;entryY=0.5;entryDx=0;entryDy=0;" edge="1" parent="kav7wHiDTqGErKAAx3Vg-1" source="A05Jj-2Q0ebtKLaCxtoe-5" target="A05Jj-2Q0ebtKLaCxtoe-8">
          <mxGeometry relative="1" as="geometry" />
        </mxCell>
        <mxCell id="A05Jj-2Q0ebtKLaCxtoe-5" value="Приготовление блюд" style="rounded=1;whiteSpace=wrap;html=1;" vertex="1" parent="kav7wHiDTqGErKAAx3Vg-1">
          <mxGeometry x="160" y="77.5" width="100" height="55" as="geometry" />
        </mxCell>
        <mxCell id="A05Jj-2Q0ebtKLaCxtoe-7" value="&lt;font style=&quot;font-size: 10px;&quot;&gt;Повара распределяют блюда&lt;/font&gt;" style="text;html=1;align=center;verticalAlign=middle;whiteSpace=wrap;rounded=0;" vertex="1" parent="kav7wHiDTqGErKAAx3Vg-1">
          <mxGeometry x="90" y="70" width="60" height="30" as="geometry" />
        </mxCell>
        <mxCell id="A05Jj-2Q0ebtKLaCxtoe-8" value="Проблема с координацией на кухне" style="rounded=1;whiteSpace=wrap;html=1;" vertex="1" parent="kav7wHiDTqGErKAAx3Vg-1">
          <mxGeometry x="330" y="79.5" width="100" height="53" as="geometry" />
        </mxCell>
        <mxCell id="A05Jj-2Q0ebtKLaCxtoe-10" value="&lt;font style=&quot;font-size: 10px;&quot;&gt;Запара на кухне&lt;/font&gt;" style="text;html=1;align=center;verticalAlign=middle;whiteSpace=wrap;rounded=0;" vertex="1" parent="kav7wHiDTqGErKAAx3Vg-1">
          <mxGeometry x="260" y="70" width="60" height="30" as="geometry" />
        </mxCell>
        <mxCell id="A05Jj-2Q0ebtKLaCxtoe-15" style="edgeStyle=orthogonalEdgeStyle;rounded=0;orthogonalLoop=1;jettySize=auto;html=1;exitX=0.5;exitY=0;exitDx=0;exitDy=0;exitPerimeter=0;entryX=0;entryY=0.5;entryDx=0;entryDy=0;" edge="1" parent="kav7wHiDTqGErKAAx3Vg-1" source="A05Jj-2Q0ebtKLaCxtoe-11" target="A05Jj-2Q0ebtKLaCxtoe-14">
          <mxGeometry relative="1" as="geometry" />
        </mxCell>
        <mxCell id="A05Jj-2Q0ebtKLaCxtoe-16" style="edgeStyle=orthogonalEdgeStyle;rounded=0;orthogonalLoop=1;jettySize=auto;html=1;exitX=0.5;exitY=1;exitDx=0;exitDy=0;exitPerimeter=0;entryX=0;entryY=0.75;entryDx=0;entryDy=0;" edge="1" parent="kav7wHiDTqGErKAAx3Vg-1" source="A05Jj-2Q0ebtKLaCxtoe-11" target="A05Jj-2Q0ebtKLaCxtoe-13">
          <mxGeometry relative="1" as="geometry" />
        </mxCell>
        <mxCell id="A05Jj-2Q0ebtKLaCxtoe-11" value="" style="points=[[0.25,0.25,0],[0.5,0,0],[0.75,0.25,0],[1,0.5,0],[0.75,0.75,0],[0.5,1,0],[0.25,0.75,0],[0,0.5,0]];shape=mxgraph.bpmn.gateway2;html=1;verticalLabelPosition=bottom;labelBackgroundColor=#ffffff;verticalAlign=top;align=center;perimeter=rhombusPerimeter;outlineConnect=0;outline=none;symbol=none;gwType=exclusive;" vertex="1" parent="kav7wHiDTqGErKAAx3Vg-1">
          <mxGeometry x="480" y="80" width="50" height="50" as="geometry" />
        </mxCell>
        <mxCell id="A05Jj-2Q0ebtKLaCxtoe-12" style="edgeStyle=orthogonalEdgeStyle;rounded=0;orthogonalLoop=1;jettySize=auto;html=1;exitX=1;exitY=0.5;exitDx=0;exitDy=0;entryX=0;entryY=0.5;entryDx=0;entryDy=0;entryPerimeter=0;" edge="1" parent="kav7wHiDTqGErKAAx3Vg-1" source="A05Jj-2Q0ebtKLaCxtoe-8" target="A05Jj-2Q0ebtKLaCxtoe-11">
          <mxGeometry relative="1" as="geometry" />
        </mxCell>
        <mxCell id="g6m6nmhpoHQVQBthewkb-2" style="edgeStyle=orthogonalEdgeStyle;rounded=0;orthogonalLoop=1;jettySize=auto;html=1;exitX=1;exitY=0.5;exitDx=0;exitDy=0;entryX=0;entryY=0.5;entryDx=0;entryDy=0;" edge="1" parent="kav7wHiDTqGErKAAx3Vg-1" source="A05Jj-2Q0ebtKLaCxtoe-14" target="g6m6nmhpoHQVQBthewkb-1">
          <mxGeometry relative="1" as="geometry" />
        </mxCell>
        <mxCell id="A05Jj-2Q0ebtKLaCxtoe-14" value="Решение проблем с координацией на кухне" style="rounded=1;whiteSpace=wrap;html=1;" vertex="1" parent="kav7wHiDTqGErKAAx3Vg-1">
          <mxGeometry x="540" y="17.5" width="120" height="60" as="geometry" />
        </mxCell>
        <mxCell id="A05Jj-2Q0ebtKLaCxtoe-13" value="Обслуживание клиента" style="rounded=1;whiteSpace=wrap;html=1;" vertex="1" parent="kav7wHiDTqGErKAAx3Vg-1">
          <mxGeometry x="540" y="110" width="120" height="60" as="geometry" />
        </mxCell>
        <mxCell id="A05Jj-2Q0ebtKLaCxtoe-17" value="&lt;font style=&quot;font-size: 10px;&quot;&gt;да&lt;/font&gt;" style="text;html=1;align=center;verticalAlign=middle;whiteSpace=wrap;rounded=0;" vertex="1" parent="kav7wHiDTqGErKAAx3Vg-1">
          <mxGeometry x="490" y="17.5" width="60" height="30" as="geometry" />
        </mxCell>
        <mxCell id="A05Jj-2Q0ebtKLaCxtoe-18" value="&lt;font style=&quot;font-size: 10px;&quot;&gt;нет&lt;/font&gt;" style="text;html=1;align=center;verticalAlign=middle;whiteSpace=wrap;rounded=0;" vertex="1" parent="kav7wHiDTqGErKAAx3Vg-1">
          <mxGeometry x="490" y="130" width="60" height="30" as="geometry" />
        </mxCell>
        <mxCell id="g6m6nmhpoHQVQBthewkb-1" value="Коммуникация на кухне налажена" style="rounded=1;whiteSpace=wrap;html=1;" vertex="1" parent="kav7wHiDTqGErKAAx3Vg-1">
          <mxGeometry x="747" y="17.5" width="120" height="60" as="geometry" />
        </mxCell>
        <mxCell id="8bPmHtwhaSbDscPknEY--2" value="" style="points=[[0.145,0.145,0],[0.5,0,0],[0.855,0.145,0],[1,0.5,0],[0.855,0.855,0],[0.5,1,0],[0.145,0.855,0],[0,0.5,0]];shape=mxgraph.bpmn.event;html=1;verticalLabelPosition=bottom;labelBackgroundColor=#ffffff;verticalAlign=top;align=center;perimeter=ellipsePerimeter;outlineConnect=0;aspect=fixed;outline=end;symbol=terminate2;" vertex="1" parent="kav7wHiDTqGErKAAx3Vg-1">
          <mxGeometry x="785" y="117.5" width="45" height="45" as="geometry" />
        </mxCell>
        <mxCell id="8bPmHtwhaSbDscPknEY--3" style="edgeStyle=orthogonalEdgeStyle;rounded=0;orthogonalLoop=1;jettySize=auto;html=1;exitX=1;exitY=0.5;exitDx=0;exitDy=0;entryX=0;entryY=0.5;entryDx=0;entryDy=0;entryPerimeter=0;" edge="1" parent="kav7wHiDTqGErKAAx3Vg-1" source="A05Jj-2Q0ebtKLaCxtoe-13" target="8bPmHtwhaSbDscPknEY--2">
          <mxGeometry relative="1" as="geometry" />
        </mxCell>
        <mxCell id="HH6DTCPlu-knCsd_bD8Q-1" value="" style="points=[[0.145,0.145,0],[0.5,0,0],[0.855,0.145,0],[1,0.5,0],[0.855,0.855,0],[0.5,1,0],[0.145,0.855,0],[0,0.5,0]];shape=mxgraph.bpmn.event;html=1;verticalLabelPosition=bottom;labelBackgroundColor=#ffffff;verticalAlign=top;align=center;perimeter=ellipsePerimeter;outlineConnect=0;aspect=fixed;outline=end;symbol=terminate2;" vertex="1" parent="kav7wHiDTqGErKAAx3Vg-1">
          <mxGeometry x="930" y="25" width="45" height="45" as="geometry" />
        </mxCell>
        <mxCell id="HH6DTCPlu-knCsd_bD8Q-2" style="edgeStyle=orthogonalEdgeStyle;rounded=0;orthogonalLoop=1;jettySize=auto;html=1;exitX=1;exitY=0.5;exitDx=0;exitDy=0;entryX=0;entryY=0.5;entryDx=0;entryDy=0;entryPerimeter=0;" edge="1" parent="kav7wHiDTqGErKAAx3Vg-1" source="g6m6nmhpoHQVQBthewkb-1" target="HH6DTCPlu-knCsd_bD8Q-1">
          <mxGeometry relative="1" as="geometry" />
        </mxCell>
        <mxCell id="HH6DTCPlu-knCsd_bD8Q-3" value="&lt;font style=&quot;font-size: 10px;&quot;&gt;действия по улучшению коммуникации&lt;/font&gt;" style="text;html=1;align=center;verticalAlign=middle;whiteSpace=wrap;rounded=0;" vertex="1" parent="kav7wHiDTqGErKAAx3Vg-1">
          <mxGeometry x="670" y="10" width="60" height="30" as="geometry" />
        </mxCell>
        <mxCell id="kav7wHiDTqGErKAAx3Vg-2" value="Клиент" style="swimlane;whiteSpace=wrap;html=1;" parent="1" vertex="1">
          <mxGeometry x="40" y="20" width="940" height="30" as="geometry" />
        </mxCell>
        <mxCell id="A05Jj-2Q0ebtKLaCxtoe-3" style="edgeStyle=orthogonalEdgeStyle;rounded=0;orthogonalLoop=1;jettySize=auto;html=1;exitX=0;exitY=1;exitDx=0;exitDy=0;entryX=0.5;entryY=0;entryDx=0;entryDy=0;entryPerimeter=0;dashed=1;dashPattern=12 12;" edge="1" parent="1" source="kav7wHiDTqGErKAAx3Vg-2" target="A05Jj-2Q0ebtKLaCxtoe-2">
          <mxGeometry relative="1" as="geometry" />
        </mxCell>
        <mxCell id="A05Jj-2Q0ebtKLaCxtoe-4" value="&lt;font style=&quot;font-size: 10px;&quot;&gt;Поступил заказ от клиента на кухню&lt;/font&gt;" style="text;html=1;align=center;verticalAlign=middle;whiteSpace=wrap;rounded=0;" vertex="1" parent="1">
          <mxGeometry x="40" y="90" width="90" height="30" as="geometry" />
        </mxCell>
      </root>
    </mxGraphModel>
  </diagram>
  <diagram id="Rh5c1PrL9PJFOBD_5HAE" name="Страница — 3">
    <mxGraphModel dx="836" dy="482" grid="1" gridSize="10" guides="1" tooltips="1" connect="1" arrows="1" fold="1" page="1" pageScale="1" pageWidth="827" pageHeight="1169" math="0" shadow="0">
      <root>
        <mxCell id="0" />
        <mxCell id="1" parent="0" />
        <mxCell id="eBIeVKJ-Vdc4Sw_x_bMz-1" value="Менеджер" style="swimlane;whiteSpace=wrap;html=1;" vertex="1" parent="1">
          <mxGeometry x="10" y="30" width="780" height="40" as="geometry" />
        </mxCell>
        <mxCell id="eBIeVKJ-Vdc4Sw_x_bMz-2" value="Финансист" style="swimlane;horizontal=0;whiteSpace=wrap;html=1;" vertex="1" parent="1">
          <mxGeometry x="10" y="190" width="780" height="210" as="geometry" />
        </mxCell>
        <mxCell id="N9DgE-Qfn6lnIMb-b-Wl-2" value="" style="rounded=1;whiteSpace=wrap;html=1;" vertex="1" parent="eBIeVKJ-Vdc4Sw_x_bMz-2">
          <mxGeometry x="90" y="30" width="120" height="60" as="geometry" />
        </mxCell>
        <mxCell id="N9DgE-Qfn6lnIMb-b-Wl-3" style="edgeStyle=orthogonalEdgeStyle;rounded=0;orthogonalLoop=1;jettySize=auto;html=1;exitX=0.5;exitY=1;exitDx=0;exitDy=0;exitPerimeter=0;entryX=0;entryY=0.5;entryDx=0;entryDy=0;" edge="1" parent="1" source="eBIeVKJ-Vdc4Sw_x_bMz-5" target="N9DgE-Qfn6lnIMb-b-Wl-2">
          <mxGeometry relative="1" as="geometry" />
        </mxCell>
        <mxCell id="eBIeVKJ-Vdc4Sw_x_bMz-5" value="" style="points=[[0.145,0.145,0],[0.5,0,0],[0.855,0.145,0],[1,0.5,0],[0.855,0.855,0],[0.5,1,0],[0.145,0.855,0],[0,0.5,0]];shape=mxgraph.bpmn.event;html=1;verticalLabelPosition=bottom;labelBackgroundColor=#ffffff;verticalAlign=top;align=center;perimeter=ellipsePerimeter;outlineConnect=0;aspect=fixed;outline=standard;symbol=message;" vertex="1" parent="1">
          <mxGeometry x="40" y="120" width="50" height="50" as="geometry" />
        </mxCell>
        <mxCell id="eBIeVKJ-Vdc4Sw_x_bMz-8" style="edgeStyle=orthogonalEdgeStyle;rounded=0;orthogonalLoop=1;jettySize=auto;html=1;exitX=0.25;exitY=1;exitDx=0;exitDy=0;entryX=0.5;entryY=0;entryDx=0;entryDy=0;entryPerimeter=0;" edge="1" parent="1" source="eBIeVKJ-Vdc4Sw_x_bMz-1" target="eBIeVKJ-Vdc4Sw_x_bMz-5">
          <mxGeometry relative="1" as="geometry" />
        </mxCell>
        <mxCell id="N9DgE-Qfn6lnIMb-b-Wl-4" value="&lt;font style=&quot;font-size: 10px;&quot;&gt;Запрос анализа финансов&lt;/font&gt;" style="text;html=1;align=center;verticalAlign=middle;whiteSpace=wrap;rounded=0;" vertex="1" parent="1">
          <mxGeometry x="100" y="100" width="60" height="30" as="geometry" />
        </mxCell>
      </root>
    </mxGraphModel>
  </diagram>
</mxfile>
